<?xml version="1.0" standalone="no"?>
<!DOCTYPE svg PUBLIC "-//W3C//DTD SVG 20010904//EN"
 "http://www.w3.org/TR/2001/REC-SVG-20010904/DTD/svg10.dtd">
<svg version="1.0" xmlns="http://www.w3.org/2000/svg"
 width="416.000000pt" height="378.000000pt" viewBox="0 0 416.000000 378.000000"
 preserveAspectRatio="xMidYMid meet">

<g transform="translate(0.000000,378.000000) scale(0.100000,-0.100000)"
fill="#000000" stroke="none">
<path d="M1873 3309 c-181 -28 -402 -105 -550 -193 -137 -81 -228 -153 -344
-273 -200 -208 -327 -443 -396 -733 -47 -200 -41 -590 12 -717 12 -29 19 -33
50 -33 52 0 61 26 40 121 -25 112 -31 381 -12 504 64 403 288 757 622 983 160
108 374 194 564 226 124 21 358 21 482 0 321 -55 632 -230 845 -475 168 -193
275 -411 331 -669 26 -121 26 -439 0 -562 -23 -105 -16 -128 39 -128 30 0 37
5 49 33 46 112 59 442 25 642 -56 325 -194 591 -435 830 -223 223 -447 348
-755 422 -90 21 -134 25 -305 28 -110 2 -228 -1 -262 -6z"/>
<path d="M2060 2967 c-43 -96 -64 -212 -65 -359 0 -71 -2 -128 -4 -128 -2 0
-25 20 -51 44 -54 50 -131 93 -205 112 -105 28 -265 13 -377 -35 l-43 -19 45
-19 c25 -11 147 -62 272 -114 125 -52 226 -98 225 -103 -2 -5 -30 -11 -62 -13
-191 -13 -347 -122 -435 -304 -22 -46 -36 -85 -31 -87 4 -1 127 46 272 107
145 60 266 105 267 100 2 -5 -15 -30 -38 -55 -23 -25 -58 -80 -78 -122 -33
-70 -37 -86 -40 -180 -3 -57 1 -123 7 -150 15 -60 51 -152 60 -152 4 0 34 64
66 143 119 290 157 377 165 377 11 0 19 -163 26 -492 l5 -258 -679 0 c-514 0
-681 -3 -690 -12 -20 -20 -15 -76 7 -88 27 -14 2815 -14 2842 0 22 12 27 68 7
88 -9 9 -176 12 -690 12 l-678 0 0 254 c0 159 4 257 10 261 6 4 10 55 10 121
0 63 4 114 8 114 11 0 9 4 127 -280 54 -129 99 -237 102 -240 8 -8 23 24 49
108 24 74 26 94 22 191 -4 99 -8 115 -40 184 -20 42 -55 96 -78 121 -23 25
-40 50 -38 55 1 5 122 -40 267 -100 145 -60 268 -108 273 -107 5 2 -10 41 -32
87 -88 182 -244 291 -435 304 -32 2 -60 8 -62 13 -1 5 100 51 225 103 125 52
247 103 272 114 l45 19 -43 19 c-88 38 -162 51 -272 47 -96 -3 -111 -6 -182
-40 -43 -20 -100 -57 -126 -82 -27 -25 -51 -46 -53 -46 -2 0 -4 57 -5 128 0
81 -6 158 -18 211 -19 91 -68 211 -86 211 -6 0 -24 -29 -40 -63z"/>
<path d="M768 1069 c-21 -12 -24 -69 -6 -87 17 -17 2659 -17 2676 0 20 20 15
76 -7 88 -27 14 -2639 13 -2663 -1z"/>
<path d="M880 869 c-16 -30 -4 -68 26 -79 34 -13 2354 -13 2388 0 30 11 42 49
26 79 l-11 21 -1209 0 -1209 0 -11 -21z"/>
<path d="M1056 688 c-21 -30 -20 -44 4 -68 20 -20 33 -20 1040 -20 1007 0
1020 0 1040 20 24 24 25 38 4 68 l-15 22 -1029 0 -1029 0 -15 -22z"/>
<path d="M1316 514 c-19 -18 -21 -65 -4 -82 17 -17 1559 -17 1576 0 20 20 15
76 -7 88 -13 7 -276 10 -785 10 -682 0 -766 -2 -780 -16z"/>
<path d="M1832 328 c-20 -20 -14 -65 10 -82 33 -24 483 -24 516 0 24 17 30 62
10 82 -17 17 -519 17 -536 0z"/>
</g>
</svg>
